{"asset":{"version":"2.0","generator":"babylon.js glTF exporter for 3dsmax 2021 v20230922.2"},"scene":0,"scenes":[{"nodes":[0]}],"nodes":[{"children":[1],"translation":[1.47163081,60.380394,26.7117348],"name":"shenchanxian"},{"mesh":0,"translation":[57.0075035,-56.33224,-47.1629562],"scale":[1.319275,1.319275,1.319275],"name":"500chongbeiji"}],"meshes":[{"primitives":[{"attributes":{"POSITION":1,"NORMAL":2,"TEXCOORD_0":3},"indices":0,"material":0},{"attributes":{"POSITION":5,"NORMAL":6,"TEXCOORD_0":7},"indices":4,"material":1},{"attributes":{"POSITION":9,"NORMAL":10,"TEXCOORD_0":11},"indices":8,"material":2},{"attributes":{"POSITION":13,"NORMAL":14,"TEXCOORD_0":15},"indices":12,"material":3},{"attributes":{"POSITION":17,"NORMAL":18,"TEXCOORD_0":19},"indices":16,"material":4},{"attributes":{"POSITION":21,"NORMAL":22,"TEXCOORD_0":23},"indices":20,"material":5},{"attributes":{"POSITION":25,"NORMAL":26,"TEXCOORD_0":27},"indices":24,"material":6},{"attributes":{"POSITION":29,"NORMAL":30,"TEXCOORD_0":31},"indices":28,"material":7},{"attributes":{"POSITION":33,"NORMAL":34,"TEXCOORD_0":35},"indices":32,"material":8},{"attributes":{"POSITION":37,"NORMAL":38,"TEXCOORD_0":39},"indices":36,"material":9},{"attributes":{"POSITION":41,"NORMAL":42,"TEXCOORD_0":43},"indices":40,"material":10}],"name":"500chongbeiji"}],"accessors":[{"bufferView":0,"componentType":5123,"count":486,"type":"SCALAR","name":"accessorIndices"},{"bufferView":1,"componentType":5126,"count":262,"max":[2.138851,1.03737319,1.67780769],"min":[-1.82527339,-3.095982,-4.135768],"type":"VEC3","name":"accessorPositions"},{"bufferView":1,"byteOffset":3144,"componentType":5126,"count":262,"type":"VEC3","name":"accessorNormals"},{"bufferView":2,"componentType":5126,"count":262,"type":"VEC2","name":"accessorUVs"},{"bufferView":0,"byteOffset":972,"componentType":5123,"count":6,"type":"SCALAR","name":"accessorIndices"},{"bufferView":1,"byteOffset":6288,"componentType":5126,"count":4,"max":[1.99861991,-1.80532646,-3.65874624],"min":[1.99861944,-1.97051847,-3.919254],"type":"VEC3","name":"accessorPositions"},{"bufferView":1,"byteOffset":6336,"componentType":5126,"count":4,"type":"VEC3","name":"accessorNormals"},{"bufferView":2,"byteOffset":2096,"componentType":5126,"count":4,"type":"VEC2","name":"accessorUVs"},{"bufferView":0,"byteOffset":984,"componentType":5123,"count":228,"type":"SCALAR","name":"accessorIndices"},{"bufferView":1,"byteOffset":6384,"componentType":5126,"count":104,"max":[2.13885045,-1.53545785,-1.34395027],"min":[1.0612179,-2.17609572,-4.02843666],"type":"VEC3","name":"accessorPositions"},{"bufferView":1,"byteOffset":7632,"componentType":5126,"count":104,"type":"VEC3","name":"accessorNormals"},{"bufferView":2,"byteOffset":2128,"componentType":5126,"count":104,"type":"VEC2","name":"accessorUVs"},{"bufferView":0,"byteOffset":1440,"componentType":5123,"count":114,"type":"SCALAR","name":"accessorIndices"},{"bufferView":1,"byteOffset":8880,"componentType":5126,"count":155,"max":[2.15761948,-1.53545785,-1.34395027],"min":[1.0612179,-3.075982,-4.094416],"type":"VEC3","name":"accessorPositions"},{"bufferView":1,"byteOffset":10740,"componentType":5126,"count":155,"type":"VEC3","name":"accessorNormals"},{"bufferView":2,"byteOffset":2960,"componentType":5126,"count":155,"type":"VEC2","name":"accessorUVs"},{"bufferView":0,"byteOffset":1668,"componentType":5123,"count":30,"type":"SCALAR","name":"accessorIndices"},{"bufferView":1,"byteOffset":12600,"componentType":5126,"count":18,"max":[1.88352549,-1.28025186,4.135761],"min":[-2.35906267,-1.45268929,1.61236918],"type":"VEC3","name":"accessorPositions"},{"bufferView":1,"byteOffset":12816,"componentType":5126,"count":18,"type":"VEC3","name":"accessorNormals"},{"bufferView":2,"byteOffset":4200,"componentType":5126,"count":18,"type":"VEC2","name":"accessorUVs"},{"bufferView":0,"byteOffset":1728,"componentType":5123,"count":1452,"type":"SCALAR","name":"accessorIndices"},{"bufferView":1,"byteOffset":13032,"componentType":5126,"count":718,"max":[2.02556229,2.36796522,4.135761],"min":[-2.35906267,-3.06846714,-4.065579],"type":"VEC3","name":"accessorPositions"},{"bufferView":1,"byteOffset":21648,"componentType":5126,"count":718,"type":"VEC3","name":"accessorNormals"},{"bufferView":2,"byteOffset":4344,"componentType":5126,"count":718,"type":"VEC2","name":"accessorUVs"},{"bufferView":0,"byteOffset":4632,"componentType":5123,"count":606,"type":"SCALAR","name":"accessorIndices"},{"bufferView":1,"byteOffset":30264,"componentType":5126,"count":344,"max":[2.35906744,2.09757733,2.05977964],"min":[-1.56784761,-2.17609572,-4.065579],"type":"VEC3","name":"accessorPositions"},{"bufferView":1,"byteOffset":34392,"componentType":5126,"count":344,"type":"VEC3","name":"accessorNormals"},{"bufferView":2,"byteOffset":10088,"componentType":5126,"count":344,"type":"VEC2","name":"accessorUVs"},{"bufferView":0,"byteOffset":5844,"componentType":5123,"count":174,"type":"SCALAR","name":"accessorIndices"},{"bufferView":1,"byteOffset":38520,"componentType":5126,"count":112,"max":[1.8835305,3.095982,2.17278624],"min":[-2.35905719,1.12872577,-1.452044],"type":"VEC3","name":"accessorPositions"},{"bufferView":1,"byteOffset":39864,"componentType":5126,"count":112,"type":"VEC3","name":"accessorNormals"},{"bufferView":2,"byteOffset":12840,"componentType":5126,"count":112,"type":"VEC2","name":"accessorUVs"},{"bufferView":0,"byteOffset":6192,"componentType":5123,"count":822,"type":"SCALAR","name":"accessorIndices"},{"bufferView":1,"byteOffset":41208,"componentType":5126,"count":414,"max":[2.225273,2.11873341,2.32017541],"min":[-2.3144002,-2.284219,-3.90152764],"type":"VEC3","name":"accessorPositions"},{"bufferView":1,"byteOffset":46176,"componentType":5126,"count":414,"type":"VEC3","name":"accessorNormals"},{"bufferView":2,"byteOffset":13736,"componentType":5126,"count":414,"type":"VEC2","name":"accessorUVs"},{"bufferView":0,"byteOffset":7836,"componentType":5123,"count":72,"type":"SCALAR","name":"accessorIndices"},{"bufferView":1,"byteOffset":51144,"componentType":5126,"count":40,"max":[2.003652,-1.78411055,-3.625287],"min":[1.992122,-1.9917376,-3.95271349],"type":"VEC3","name":"accessorPositions"},{"bufferView":1,"byteOffset":51624,"componentType":5126,"count":40,"type":"VEC3","name":"accessorNormals"},{"bufferView":2,"byteOffset":17048,"componentType":5126,"count":40,"type":"VEC2","name":"accessorUVs"},{"bufferView":0,"byteOffset":7980,"componentType":5123,"count":1320,"type":"SCALAR","name":"accessorIndices"},{"bufferView":1,"byteOffset":52104,"componentType":5126,"count":280,"max":[1.19784617,2.48400927,2.34883237],"min":[-1.67116,1.54519558,-1.61097121],"type":"VEC3","name":"accessorPositions"},{"bufferView":1,"byteOffset":55464,"componentType":5126,"count":280,"type":"VEC3","name":"accessorNormals"},{"bufferView":2,"byteOffset":17368,"componentType":5126,"count":280,"type":"VEC2","name":"accessorUVs"}],"bufferViews":[{"buffer":0,"byteLength":10620,"name":"bufferViewScalar"},{"buffer":0,"byteOffset":10620,"byteLength":58824,"byteStride":12,"name":"bufferViewFloatVec3"},{"buffer":0,"byteOffset":69444,"byteLength":19608,"byteStride":8,"name":"bufferViewFloatVec2"}],"buffers":[{"uri":"14.bin","byteLength":89052}],"materials":[{"pbrMetallicRoughness":{"baseColorFactor":[0.009316283,0.107913673,0.0132601727,1.0],"metallicFactor":0.0},"normalTexture":{"index":0,"scale":0.3},"doubleSided":true,"name":"dimian"},{"pbrMetallicRoughness":{"baseColorFactor":[0.346970439,0.798561156,0.777546346,1.0],"metallicFactor":0.01,"roughnessFactor":0.0},"doubleSided":true,"name":"diangui"},{"pbrMetallicRoughness":{"baseColorFactor":[0.2086331,0.037990544,0.0147211095,1.0],"metallicFactor":0.0,"roughnessFactor":0.0},"doubleSided":true,"name":"diyaJG1"},{"pbrMetallicRoughness":{"baseColorFactor":[0.768627465,0.768627465,0.768627465,1.0],"metallicFactor":0.66,"roughnessFactor":0.0},"doubleSided":true,"name":"jinshu"},{"pbrMetallicRoughness":{"baseColorTexture":{"index":1},"metallicFactor":0.0,"roughnessFactor":0.0},"doubleSided":true,"name":"Material #2465"},{"pbrMetallicRoughness":{"baseColorTexture":{"index":2},"metallicFactor":0.0,"roughnessFactor":0.0},"doubleSided":true,"name":"Material #229"},{"pbrMetallicRoughness":{"baseColorTexture":{"index":3},"metallicFactor":0.0,"roughnessFactor":0.0},"doubleSided":true,"name":"Material #237"},{"pbrMetallicRoughness":{"baseColorTexture":{"index":4},"metallicFactor":0.0,"roughnessFactor":0.0},"doubleSided":true,"name":"Material #239"},{"pbrMetallicRoughness":{"baseColorTexture":{"index":5},"metallicFactor":0.0,"roughnessFactor":0.0},"doubleSided":true,"name":"Material #273"},{"pbrMetallicRoughness":{"baseColorTexture":{"index":6},"metallicFactor":0.0,"roughnessFactor":0.0},"doubleSided":true,"name":"Material #291"},{"pbrMetallicRoughness":{"baseColorFactor":[0.145,0.416,0.118,1.0],"metallicFactor":0.0,"roughnessFactor":0.0},"doubleSided":true,"name":"Material #2341"}],"textures":[{"sampler":0,"source":0,"name":"qiang_23.jpg"},{"sampler":0,"source":1,"name":"hui_8.jpg"},{"sampler":0,"source":2,"name":"lvyouqi_10.jpg"},{"sampler":0,"source":3,"name":"huangqi_14.jpg"},{"sampler":0,"source":4,"name":"lbyouqi_15.jpg"},{"sampler":0,"source":5,"name":"huangqi_19.jpg"},{"sampler":0,"source":6,"name":"heiqi_21.jpg"}],"images":[{"uri":"qiang_23.jpg"},{"uri":"hui_8.jpg"},{"uri":"lvyouqi_10.jpg"},{"uri":"huangqi_14.jpg"},{"uri":"lbyouqi_15.jpg"},{"uri":"huangqi_19.jpg"},{"uri":"heiqi_21.jpg"}],"samplers":[{"magFilter":9729,"minFilter":9987}]}