{"asset":{"version":"2.0","generator":"babylon.js glTF exporter for 3dsmax 2021 v20230922.2"},"scene":0,"scenes":[{"nodes":[0]}],"nodes":[{"children":[1],"translation":[1.47163081,60.380394,26.7117348],"name":"shenchanxian"},{"mesh":0,"translation":[-9.643302,-58.52973,-21.1050682],"rotation":[0.0,-1.0,0.0,4.371139E-08],"name":"caiyinji001"}],"meshes":[{"primitives":[{"attributes":{"POSITION":1,"NORMAL":2,"TEXCOORD_0":3},"indices":0,"material":0},{"attributes":{"POSITION":5,"NORMAL":6,"TEXCOORD_0":7},"indices":4,"material":1},{"attributes":{"POSITION":9,"NORMAL":10,"TEXCOORD_0":11},"indices":8,"material":2},{"attributes":{"POSITION":13,"NORMAL":14,"TEXCOORD_0":15},"indices":12,"material":3}],"name":"caiyinji001"}],"accessors":[{"bufferView":0,"componentType":5123,"count":540,"type":"SCALAR","name":"accessorIndices"},{"bufferView":1,"componentType":5126,"count":260,"max":[13.6114874,1.75179291,5.992157],"min":[-2.85513234,-1.92039812,-7.48000574],"type":"VEC3","name":"accessorPositions"},{"bufferView":1,"byteOffset":3120,"componentType":5126,"count":260,"type":"VEC3","name":"accessorNormals"},{"bufferView":2,"componentType":5126,"count":260,"type":"VEC2","name":"accessorUVs"},{"bufferView":0,"byteOffset":1080,"componentType":5123,"count":612,"type":"SCALAR","name":"accessorIndices"},{"bufferView":1,"byteOffset":6240,"componentType":5126,"count":411,"max":[11.5340939,1.90016019,3.494328],"min":[9.973763,0.0279170219,-4.675576],"type":"VEC3","name":"accessorPositions"},{"bufferView":1,"byteOffset":11172,"componentType":5126,"count":411,"type":"VEC3","name":"accessorNormals"},{"bufferView":2,"byteOffset":2080,"componentType":5126,"count":411,"type":"VEC2","name":"accessorUVs"},{"bufferView":0,"byteOffset":2304,"componentType":5123,"count":552,"type":"SCALAR","name":"accessorIndices"},{"bufferView":1,"byteOffset":16104,"componentType":5126,"count":288,"max":[12.7830744,1.53909659,2.058811],"min":[10.9712067,-0.272770852,-6.146383],"type":"VEC3","name":"accessorPositions"},{"bufferView":1,"byteOffset":19560,"componentType":5126,"count":288,"type":"VEC3","name":"accessorNormals"},{"bufferView":2,"byteOffset":5368,"componentType":5126,"count":288,"type":"VEC2","name":"accessorUVs"},{"bufferView":0,"byteOffset":3408,"componentType":5123,"count":240,"type":"SCALAR","name":"accessorIndices"},{"bufferView":1,"byteOffset":23016,"componentType":5126,"count":140,"max":[12.8144875,1.78092527,4.1447587],"min":[8.490391,-0.7040245,-5.73917246],"type":"VEC3","name":"accessorPositions"},{"bufferView":1,"byteOffset":24696,"componentType":5126,"count":140,"type":"VEC3","name":"accessorNormals"},{"bufferView":2,"byteOffset":7672,"componentType":5126,"count":140,"type":"VEC2","name":"accessorUVs"}],"bufferViews":[{"buffer":0,"byteLength":3888,"name":"bufferViewScalar"},{"buffer":0,"byteOffset":3888,"byteLength":26376,"byteStride":12,"name":"bufferViewFloatVec3"},{"buffer":0,"byteOffset":30264,"byteLength":8792,"byteStride":8,"name":"bufferViewFloatVec2"}],"buffers":[{"uri":"52.bin","byteLength":39056}],"materials":[{"pbrMetallicRoughness":{"baseColorTexture":{"index":0},"metallicFactor":0.0,"roughnessFactor":0.0},"doubleSided":true,"name":"Material #2465"},{"pbrMetallicRoughness":{"baseColorTexture":{"index":1},"metallicFactor":0.26,"roughnessFactor":0.0},"doubleSided":true,"name":"Material #235"},{"pbrMetallicRoughness":{"baseColorTexture":{"index":2},"metallicFactor":0.0,"roughnessFactor":0.0},"doubleSided":true,"name":"Material #237"},{"pbrMetallicRoughness":{"baseColorTexture":{"index":3},"metallicFactor":0.0,"roughnessFactor":0.0},"doubleSided":true,"name":"Material #239"}],"textures":[{"sampler":0,"source":0,"name":"hui_8.jpg"},{"sampler":0,"source":1,"name":"suojingji_13.jpg"},{"sampler":0,"source":2,"name":"huangqi_14.jpg"},{"sampler":0,"source":3,"name":"lbyouqi_15.jpg"}],"images":[{"uri":"hui_8.jpg"},{"uri":"suojingji_13.jpg"},{"uri":"huangqi_14.jpg"},{"uri":"lbyouqi_15.jpg"}],"samplers":[{"magFilter":9729,"minFilter":9987}]}