{"asset":{"version":"2.0","generator":"babylon.js glTF exporter for 3dsmax 2021 v20230922.2"},"scene":0,"scenes":[{"nodes":[0]}],"nodes":[{"children":[1],"translation":[1.47163081,60.380394,26.7117348],"name":"shenchanxian"},{"mesh":0,"translation":[-29.7132912,-59.00498,-16.6184826],"scale":[1.2709,1.2709,1.2709],"name":"330suojinji"}],"meshes":[{"primitives":[{"attributes":{"POSITION":1,"NORMAL":2,"TEXCOORD_0":3},"indices":0,"material":0},{"attributes":{"POSITION":5,"NORMAL":6,"TEXCOORD_0":7},"indices":4,"material":1},{"attributes":{"POSITION":9,"NORMAL":10,"TEXCOORD_0":11},"indices":8,"material":2},{"attributes":{"POSITION":13,"NORMAL":14,"TEXCOORD_0":15},"indices":12,"material":3},{"attributes":{"POSITION":17,"NORMAL":18,"TEXCOORD_0":19},"indices":16,"material":4},{"attributes":{"POSITION":21,"NORMAL":22,"TEXCOORD_0":23},"indices":20,"material":5},{"attributes":{"POSITION":25,"NORMAL":26,"TEXCOORD_0":27},"indices":24,"material":6},{"attributes":{"POSITION":29,"NORMAL":30,"TEXCOORD_0":31},"indices":28,"material":7}],"name":"330suojinji"}],"accessors":[{"bufferView":0,"componentType":5123,"count":30,"type":"SCALAR","name":"accessorIndices"},{"bufferView":1,"componentType":5126,"count":20,"max":[0.4067048,1.9941653,0.1170764],"min":[-20.6290455,-0.5562349,-0.4441843],"type":"VEC3","name":"accessorPositions"},{"bufferView":1,"byteOffset":240,"componentType":5126,"count":20,"type":"VEC3","name":"accessorNormals"},{"bufferView":2,"componentType":5126,"count":20,"type":"VEC2","name":"accessorUVs"},{"bufferView":0,"byteOffset":60,"componentType":5123,"count":66,"type":"SCALAR","name":"accessorIndices"},{"bufferView":1,"byteOffset":480,"componentType":5126,"count":42,"max":[-10.571806,0.187867567,2.051898],"min":[-11.034193,-0.6418936,1.19407415],"type":"VEC3","name":"accessorPositions"},{"bufferView":1,"byteOffset":984,"componentType":5126,"count":42,"type":"VEC3","name":"accessorNormals"},{"bufferView":2,"byteOffset":160,"componentType":5126,"count":42,"type":"VEC2","name":"accessorUVs"},{"bufferView":0,"byteOffset":192,"componentType":5123,"count":2712,"type":"SCALAR","name":"accessorIndices"},{"bufferView":1,"byteOffset":1488,"componentType":5126,"count":1556,"max":[0.274949282,1.91379714,2.030105],"min":[-20.5086575,-0.8733208,-0.401061058],"type":"VEC3","name":"accessorPositions"},{"bufferView":1,"byteOffset":20160,"componentType":5126,"count":1556,"type":"VEC3","name":"accessorNormals"},{"bufferView":2,"byteOffset":496,"componentType":5126,"count":1556,"type":"VEC2","name":"accessorUVs"},{"bufferView":0,"byteOffset":5616,"componentType":5123,"count":1260,"type":"SCALAR","name":"accessorIndices"},{"bufferView":1,"byteOffset":38832,"componentType":5126,"count":840,"max":[-0.274127871,0.8068968,1.06645513],"min":[-19.9288845,-0.2730577,0.3833922],"type":"VEC3","name":"accessorPositions"},{"bufferView":1,"byteOffset":48912,"componentType":5126,"count":840,"type":"VEC3","name":"accessorNormals"},{"bufferView":2,"byteOffset":12944,"componentType":5126,"count":840,"type":"VEC2","name":"accessorUVs"},{"bufferView":0,"byteOffset":8136,"componentType":5123,"count":444,"type":"SCALAR","name":"accessorIndices"},{"bufferView":1,"byteOffset":58992,"componentType":5126,"count":296,"max":[-0.129567474,-0.00996383652,1.47798336],"min":[-19.9288845,-0.989402,-0.0164748989],"type":"VEC3","name":"accessorPositions"},{"bufferView":1,"byteOffset":62544,"componentType":5126,"count":296,"type":"VEC3","name":"accessorNormals"},{"bufferView":2,"byteOffset":19664,"componentType":5126,"count":296,"type":"VEC2","name":"accessorUVs"},{"bufferView":0,"byteOffset":9024,"componentType":5123,"count":2016,"type":"SCALAR","name":"accessorIndices"},{"bufferView":1,"byteOffset":66096,"componentType":5126,"count":1120,"max":[-0.5867221,0.7112449,1.15154958],"min":[-19.6162872,0.17581968,1.0552814],"type":"VEC3","name":"accessorPositions"},{"bufferView":1,"byteOffset":79536,"componentType":5126,"count":1120,"type":"VEC3","name":"accessorNormals"},{"bufferView":2,"byteOffset":22032,"componentType":5126,"count":1120,"type":"VEC2","name":"accessorUVs"},{"bufferView":0,"byteOffset":13056,"componentType":5123,"count":6,"type":"SCALAR","name":"accessorIndices"},{"bufferView":1,"byteOffset":92976,"componentType":5126,"count":3851,"max":[0.274949282,1.91379714,2.051898],"min":[-20.5086575,-0.989402,-0.401061058],"type":"VEC3","name":"accessorPositions"},{"bufferView":1,"byteOffset":139188,"componentType":5126,"count":3851,"type":"VEC3","name":"accessorNormals"},{"bufferView":2,"byteOffset":30992,"componentType":5126,"count":3851,"type":"VEC2","name":"accessorUVs"},{"bufferView":0,"byteOffset":13068,"componentType":5123,"count":90,"type":"SCALAR","name":"accessorIndices"},{"bufferView":1,"byteOffset":185400,"componentType":5126,"count":60,"max":[0.274949282,1.91379714,0.06193821],"min":[-20.5086536,0.0,0.06193821],"type":"VEC3","name":"accessorPositions"},{"bufferView":1,"byteOffset":186120,"componentType":5126,"count":60,"type":"VEC3","name":"accessorNormals"},{"bufferView":2,"byteOffset":61800,"componentType":5126,"count":60,"type":"VEC2","name":"accessorUVs"}],"bufferViews":[{"buffer":0,"byteLength":13248,"name":"bufferViewScalar"},{"buffer":0,"byteOffset":13248,"byteLength":186840,"byteStride":12,"name":"bufferViewFloatVec3"},{"buffer":0,"byteOffset":200088,"byteLength":62280,"byteStride":8,"name":"bufferViewFloatVec2"}],"buffers":[{"uri":"55.bin","byteLength":262368}],"materials":[{"pbrMetallicRoughness":{"baseColorTexture":{"index":0},"metallicFactor":0.0,"roughnessFactor":0.0},"doubleSided":true,"name":"Material #2465"},{"pbrMetallicRoughness":{"baseColorTexture":{"index":1},"metallicFactor":0.0,"roughnessFactor":0.0},"doubleSided":true,"name":"Material #229"},{"pbrMetallicRoughness":{"baseColorTexture":{"index":2},"metallicFactor":0.26,"roughnessFactor":0.0},"doubleSided":true,"name":"Material #235"},{"pbrMetallicRoughness":{"baseColorTexture":{"index":3},"metallicFactor":0.0,"roughnessFactor":0.0},"doubleSided":true,"name":"Material #237"},{"pbrMetallicRoughness":{"baseColorTexture":{"index":4},"metallicFactor":0.0,"roughnessFactor":0.0},"doubleSided":true,"name":"Material #239"},{"pbrMetallicRoughness":{"baseColorTexture":{"index":5},"metallicFactor":0.0,"roughnessFactor":0.0},"doubleSided":true,"name":"Material #291"},{"pbrMetallicRoughness":{"baseColorTexture":{"index":6},"metallicFactor":0.0,"roughnessFactor":0.0},"doubleSided":true,"name":"Material #2522"},{"pbrMetallicRoughness":{"baseColorTexture":{"index":7},"metallicFactor":0.0,"roughnessFactor":0.0},"doubleSided":true,"name":"Material #2521"}],"textures":[{"sampler":0,"source":0,"name":"hui_8.jpg"},{"sampler":0,"source":1,"name":"lvyouqi_10.jpg"},{"sampler":0,"source":2,"name":"suojingji_13.jpg"},{"sampler":0,"source":3,"name":"huangqi_14.jpg"},{"sampler":0,"source":4,"name":"lbyouqi_15.jpg"},{"sampler":0,"source":5,"name":"heiqi_21.jpg"},{"sampler":0,"source":6,"name":"suojingji_38.jpg"},{"sampler":0,"source":7,"name":"suojingji_39.jpg"}],"images":[{"uri":"hui_8.jpg"},{"uri":"lvyouqi_10.jpg"},{"uri":"suojingji_13.jpg"},{"uri":"huangqi_14.jpg"},{"uri":"lbyouqi_15.jpg"},{"uri":"heiqi_21.jpg"},{"uri":"suojingji_38.jpg"},{"uri":"suojingji_39.jpg"}],"samplers":[{"magFilter":9729,"minFilter":9987}]}