{"asset":{"version":"2.0","generator":"babylon.js glTF exporter for 3dsmax 2021 v20230922.2"},"scene":0,"scenes":[{"nodes":[0]}],"nodes":[{"children":[1],"translation":[1.47163081,60.380394,26.7117348],"name":"shenchanxian"},{"mesh":0,"translation":[29.3552189,-58.819912,-38.1059],"scale":[1.18987274,1.40635,1.61169434],"name":"500qinxiji001"}],"meshes":[{"primitives":[{"attributes":{"POSITION":1,"NORMAL":2,"TEXCOORD_0":3},"indices":0,"material":0},{"attributes":{"POSITION":5,"NORMAL":6,"TEXCOORD_0":7},"indices":4,"material":1},{"attributes":{"POSITION":9,"NORMAL":10,"TEXCOORD_0":11},"indices":8,"material":2},{"attributes":{"POSITION":13,"NORMAL":14,"TEXCOORD_0":15},"indices":12,"material":3},{"attributes":{"POSITION":17,"NORMAL":18,"TEXCOORD_0":19},"indices":16,"material":4}],"name":"500qinxiji001"}],"accessors":[{"bufferView":0,"componentType":5123,"count":150,"type":"SCALAR","name":"accessorIndices"},{"bufferView":1,"componentType":5126,"count":100,"max":[9.095961,1.20756829,0.502287865],"min":[-10.8524733,1.11757052,-0.227811575],"type":"VEC3","name":"accessorPositions"},{"bufferView":1,"byteOffset":1200,"componentType":5126,"count":100,"type":"VEC3","name":"accessorNormals"},{"bufferView":2,"componentType":5126,"count":100,"type":"VEC2","name":"accessorUVs"},{"bufferView":0,"byteOffset":300,"componentType":5123,"count":36,"type":"SCALAR","name":"accessorIndices"},{"bufferView":1,"byteOffset":2400,"componentType":5126,"count":24,"max":[13.5413876,1.12043178,1.79629755],"min":[-14.2384043,-1.15928113,-2.029126],"type":"VEC3","name":"accessorPositions"},{"bufferView":1,"byteOffset":2688,"componentType":5126,"count":24,"type":"VEC3","name":"accessorNormals"},{"bufferView":2,"byteOffset":800,"componentType":5126,"count":24,"type":"VEC2","name":"accessorUVs"},{"bufferView":0,"byteOffset":372,"componentType":5123,"count":1440,"type":"SCALAR","name":"accessorIndices"},{"bufferView":1,"byteOffset":2976,"componentType":5126,"count":558,"max":[8.99356651,1.8209182,1.14094758],"min":[-10.7500734,1.11757052,-0.09864608],"type":"VEC3","name":"accessorPositions"},{"bufferView":1,"byteOffset":9672,"componentType":5126,"count":558,"type":"VEC3","name":"accessorNormals"},{"bufferView":2,"byteOffset":992,"componentType":5126,"count":558,"type":"VEC2","name":"accessorUVs"},{"bufferView":0,"byteOffset":3252,"componentType":5123,"count":12,"type":"SCALAR","name":"accessorIndices"},{"bufferView":1,"byteOffset":16368,"componentType":5126,"count":8,"max":[13.5413876,1.12043178,1.78569055],"min":[-13.5413837,-1.159281,-1.98668051],"type":"VEC3","name":"accessorPositions"},{"bufferView":1,"byteOffset":16464,"componentType":5126,"count":8,"type":"VEC3","name":"accessorNormals"},{"bufferView":2,"byteOffset":5456,"componentType":5126,"count":8,"type":"VEC2","name":"accessorUVs"},{"bufferView":0,"byteOffset":3276,"componentType":5123,"count":6,"type":"SCALAR","name":"accessorIndices"},{"bufferView":1,"byteOffset":16560,"componentType":5126,"count":4,"max":[13.5413876,1.12043178,1.78569055],"min":[-13.5413828,1.12043166,-1.98668051],"type":"VEC3","name":"accessorPositions"},{"bufferView":1,"byteOffset":16608,"componentType":5126,"count":4,"type":"VEC3","name":"accessorNormals"},{"bufferView":2,"byteOffset":5520,"componentType":5126,"count":4,"type":"VEC2","name":"accessorUVs"}],"bufferViews":[{"buffer":0,"byteLength":3288,"name":"bufferViewScalar"},{"buffer":0,"byteOffset":3288,"byteLength":16656,"byteStride":12,"name":"bufferViewFloatVec3"},{"buffer":0,"byteOffset":19944,"byteLength":5552,"byteStride":8,"name":"bufferViewFloatVec2"}],"buffers":[{"uri":"65.bin","byteLength":25496}],"materials":[{"pbrMetallicRoughness":{"baseColorTexture":{"index":0},"metallicFactor":0.0,"roughnessFactor":0.0},"doubleSided":true,"name":"Material #2465"},{"pbrMetallicRoughness":{"baseColorTexture":{"index":1},"metallicFactor":0.0,"roughnessFactor":0.0},"doubleSided":true,"name":"Material #233"},{"pbrMetallicRoughness":{"baseColorTexture":{"index":2},"metallicFactor":0.26,"roughnessFactor":0.0},"doubleSided":true,"name":"Material #235"},{"pbrMetallicRoughness":{"baseColorTexture":{"index":3},"metallicFactor":0.0,"roughnessFactor":0.0},"doubleSided":true,"name":"Material #2529"},{"pbrMetallicRoughness":{"baseColorTexture":{"index":4},"metallicFactor":0.0,"roughnessFactor":0.0},"doubleSided":true,"name":"Material #2536"}],"textures":[{"sampler":0,"source":0,"name":"hui_8.jpg"},{"sampler":0,"source":1,"name":"baiqi_12.jpg"},{"sampler":0,"source":2,"name":"suojingji_13.jpg"},{"sampler":0,"source":3,"name":"qingxiji_46.jpg"},{"sampler":0,"source":4,"name":"qinxiji47.jpg"}],"images":[{"uri":"hui_8.jpg"},{"uri":"baiqi_12.jpg"},{"uri":"suojingji_13.jpg"},{"uri":"qingxiji_46.jpg"},{"uri":"qinxiji47.jpg"}],"samplers":[{"magFilter":9729,"minFilter":9987}]}