{"asset":{"version":"2.0","generator":"babylon.js glTF exporter for 3dsmax 2021 v20230922.2"},"scene":0,"scenes":[{"nodes":[0]}],"nodes":[{"children":[1,2],"translation":[1.47163081,60.380394,26.7117348],"name":"shenchanxian"},{"mesh":0,"translation":[63.09332,-58.82642,-13.4110088],"scale":[1.36765,1.36765,1.36765],"name":"330kaijuanji"},{"mesh":1,"translation":[54.3986168,-55.94631,-15.9155779],"scale":[1.44505,1.44505,1.44505],"name":"330chongbeiji"}],"meshes":[{"primitives":[{"attributes":{"POSITION":1,"NORMAL":2,"TEXCOORD_0":3},"indices":0,"material":0},{"attributes":{"POSITION":5,"NORMAL":6,"TEXCOORD_0":7},"indices":4,"material":1},{"attributes":{"POSITION":9,"NORMAL":10,"TEXCOORD_0":11},"indices":8,"material":2},{"attributes":{"POSITION":13,"NORMAL":14,"TEXCOORD_0":15},"indices":12,"material":3},{"attributes":{"POSITION":17,"NORMAL":18,"TEXCOORD_0":19},"indices":16,"material":4},{"attributes":{"POSITION":21,"NORMAL":22,"TEXCOORD_0":23},"indices":20,"material":5}],"name":"330kaijuanji"},{"primitives":[{"attributes":{"POSITION":25,"NORMAL":26,"TEXCOORD_0":27},"indices":24,"material":6},{"attributes":{"POSITION":29,"NORMAL":30,"TEXCOORD_0":31},"indices":28,"material":7},{"attributes":{"POSITION":33,"NORMAL":34,"TEXCOORD_0":35},"indices":32,"material":8},{"attributes":{"POSITION":37,"NORMAL":38,"TEXCOORD_0":39},"indices":36,"material":9},{"attributes":{"POSITION":41,"NORMAL":42,"TEXCOORD_0":43},"indices":40,"material":10},{"attributes":{"POSITION":45,"NORMAL":46,"TEXCOORD_0":47},"indices":44,"material":2},{"attributes":{"POSITION":49,"NORMAL":50,"TEXCOORD_0":51},"indices":48,"material":4},{"attributes":{"POSITION":53,"NORMAL":54,"TEXCOORD_0":55},"indices":52,"material":5},{"attributes":{"POSITION":57,"NORMAL":58,"TEXCOORD_0":59},"indices":56,"material":11},{"attributes":{"POSITION":61,"NORMAL":62,"TEXCOORD_0":63},"indices":60,"material":12},{"attributes":{"POSITION":65,"NORMAL":66,"TEXCOORD_0":67},"indices":64,"material":13}],"name":"330chongbeiji"}],"accessors":[{"bufferView":0,"componentType":5123,"count":6,"type":"SCALAR","name":"accessorIndices"},{"bufferView":1,"componentType":5126,"count":4,"max":[0.646547437,-1.13623607,1.72705019],"min":[-0.646548,-1.13623607,-11.8284893],"type":"VEC3","name":"accessorPositions"},{"bufferView":1,"byteOffset":48,"componentType":5126,"count":4,"type":"VEC3","name":"accessorNormals"},{"bufferView":2,"componentType":5126,"count":4,"type":"VEC2","name":"accessorUVs"},{"bufferView":0,"byteOffset":12,"componentType":5123,"count":66,"type":"SCALAR","name":"accessorIndices"},{"bufferView":1,"byteOffset":96,"componentType":5126,"count":26,"max":[0.206827641,1.62839019,1.90781891],"min":[-0.206827134,1.21473527,0.943519354],"type":"VEC3","name":"accessorPositions"},{"bufferView":1,"byteOffset":408,"componentType":5126,"count":26,"type":"VEC3","name":"accessorNormals"},{"bufferView":2,"byteOffset":32,"componentType":5126,"count":26,"type":"VEC2","name":"accessorUVs"},{"bufferView":0,"byteOffset":144,"componentType":5123,"count":84,"type":"SCALAR","name":"accessorIndices"},{"bufferView":1,"byteOffset":720,"componentType":5126,"count":56,"max":[0.6575614,1.13623536,1.63404167],"min":[-0.657560945,-1.13623536,-0.676365435],"type":"VEC3","name":"accessorPositions"},{"bufferView":1,"byteOffset":1392,"componentType":5126,"count":56,"type":"VEC3","name":"accessorNormals"},{"bufferView":2,"byteOffset":240,"componentType":5126,"count":56,"type":"VEC2","name":"accessorUVs"},{"bufferView":0,"byteOffset":312,"componentType":5123,"count":234,"type":"SCALAR","name":"accessorIndices"},{"bufferView":1,"byteOffset":2064,"componentType":5126,"count":110,"max":[0.4259753,1.20613158,-0.672552466],"min":[-5.804736,0.357840121,-3.189835],"type":"VEC3","name":"accessorPositions"},{"bufferView":1,"byteOffset":3384,"componentType":5126,"count":110,"type":"VEC3","name":"accessorNormals"},{"bufferView":2,"byteOffset":688,"componentType":5126,"count":110,"type":"VEC2","name":"accessorUVs"},{"bufferView":0,"byteOffset":780,"componentType":5123,"count":36,"type":"SCALAR","name":"accessorIndices"},{"bufferView":1,"byteOffset":4704,"componentType":5126,"count":24,"max":[0.37381205,1.09187472,0.0744994357],"min":[-0.373812139,0.391875,-0.6763653],"type":"VEC3","name":"accessorPositions"},{"bufferView":1,"byteOffset":4992,"componentType":5126,"count":24,"type":"VEC3","name":"accessorNormals"},{"bufferView":2,"byteOffset":1568,"componentType":5126,"count":24,"type":"VEC2","name":"accessorUVs"},{"bufferView":0,"byteOffset":852,"componentType":5123,"count":90,"type":"SCALAR","name":"accessorIndices"},{"bufferView":1,"byteOffset":5280,"componentType":5126,"count":60,"max":[0.7171814,1.6567868,1.72705019],"min":[-0.717182159,-1.13623607,-11.8284893],"type":"VEC3","name":"accessorPositions"},{"bufferView":1,"byteOffset":6000,"componentType":5126,"count":60,"type":"VEC3","name":"accessorNormals"},{"bufferView":2,"byteOffset":1760,"componentType":5126,"count":60,"type":"VEC2","name":"accessorUVs"},{"bufferView":0,"byteOffset":1032,"componentType":5123,"count":486,"type":"SCALAR","name":"accessorIndices"},{"bufferView":1,"byteOffset":6720,"componentType":5126,"count":262,"max":[4.135768,1.03737319,2.138851],"min":[-1.67780757,-3.095982,-1.82527339],"type":"VEC3","name":"accessorPositions"},{"bufferView":1,"byteOffset":9864,"componentType":5126,"count":262,"type":"VEC3","name":"accessorNormals"},{"bufferView":2,"byteOffset":2240,"componentType":5126,"count":262,"type":"VEC2","name":"accessorUVs"},{"bufferView":0,"byteOffset":2004,"componentType":5123,"count":6,"type":"SCALAR","name":"accessorIndices"},{"bufferView":1,"byteOffset":13008,"componentType":5126,"count":4,"max":[3.919254,-1.80532646,1.99862015],"min":[3.65874624,-1.97051847,1.99861968],"type":"VEC3","name":"accessorPositions"},{"bufferView":1,"byteOffset":13056,"componentType":5126,"count":4,"type":"VEC3","name":"accessorNormals"},{"bufferView":2,"byteOffset":4336,"componentType":5126,"count":4,"type":"VEC2","name":"accessorUVs"},{"bufferView":0,"byteOffset":2016,"componentType":5123,"count":228,"type":"SCALAR","name":"accessorIndices"},{"bufferView":1,"byteOffset":13104,"componentType":5126,"count":104,"max":[4.02843666,-1.53545785,2.13885045],"min":[1.34395015,-2.17609572,1.06121814],"type":"VEC3","name":"accessorPositions"},{"bufferView":1,"byteOffset":14352,"componentType":5126,"count":104,"type":"VEC3","name":"accessorNormals"},{"bufferView":2,"byteOffset":4368,"componentType":5126,"count":104,"type":"VEC2","name":"accessorUVs"},{"bufferView":0,"byteOffset":2472,"componentType":5123,"count":114,"type":"SCALAR","name":"accessorIndices"},{"bufferView":1,"byteOffset":15600,"componentType":5126,"count":155,"max":[4.094416,-1.53545785,2.15761948],"min":[1.34395015,-3.075982,1.06121814],"type":"VEC3","name":"accessorPositions"},{"bufferView":1,"byteOffset":17460,"componentType":5126,"count":155,"type":"VEC3","name":"accessorNormals"},{"bufferView":2,"byteOffset":5200,"componentType":5126,"count":155,"type":"VEC2","name":"accessorUVs"},{"bufferView":0,"byteOffset":2700,"componentType":5123,"count":30,"type":"SCALAR","name":"accessorIndices"},{"bufferView":1,"byteOffset":19320,"componentType":5126,"count":18,"max":[-1.6123693,-1.28025186,1.88352537],"min":[-4.135761,-1.45268929,-2.35906267],"type":"VEC3","name":"accessorPositions"},{"bufferView":1,"byteOffset":19536,"componentType":5126,"count":18,"type":"VEC3","name":"accessorNormals"},{"bufferView":2,"byteOffset":6440,"componentType":5126,"count":18,"type":"VEC2","name":"accessorUVs"},{"bufferView":0,"byteOffset":2760,"componentType":5123,"count":1452,"type":"SCALAR","name":"accessorIndices"},{"bufferView":1,"byteOffset":19752,"componentType":5126,"count":718,"max":[4.065579,2.36796522,2.02556229],"min":[-4.135761,-3.06846714,-2.35906267],"type":"VEC3","name":"accessorPositions"},{"bufferView":1,"byteOffset":28368,"componentType":5126,"count":718,"type":"VEC3","name":"accessorNormals"},{"bufferView":2,"byteOffset":6584,"componentType":5126,"count":718,"type":"VEC2","name":"accessorUVs"},{"bufferView":0,"byteOffset":5664,"componentType":5123,"count":606,"type":"SCALAR","name":"accessorIndices"},{"bufferView":1,"byteOffset":36984,"componentType":5126,"count":344,"max":[4.065579,2.09757733,2.35906744],"min":[-2.05977964,-2.17609572,-1.56784761],"type":"VEC3","name":"accessorPositions"},{"bufferView":1,"byteOffset":41112,"componentType":5126,"count":344,"type":"VEC3","name":"accessorNormals"},{"bufferView":2,"byteOffset":12328,"componentType":5126,"count":344,"type":"VEC2","name":"accessorUVs"},{"bufferView":0,"byteOffset":6876,"componentType":5123,"count":174,"type":"SCALAR","name":"accessorIndices"},{"bufferView":1,"byteOffset":45240,"componentType":5126,"count":112,"max":[1.45204389,3.095982,1.88353038],"min":[-2.172786,1.12872577,-2.35905719],"type":"VEC3","name":"accessorPositions"},{"bufferView":1,"byteOffset":46584,"componentType":5126,"count":112,"type":"VEC3","name":"accessorNormals"},{"bufferView":2,"byteOffset":15080,"componentType":5126,"count":112,"type":"VEC2","name":"accessorUVs"},{"bufferView":0,"byteOffset":7224,"componentType":5123,"count":822,"type":"SCALAR","name":"accessorIndices"},{"bufferView":1,"byteOffset":47928,"componentType":5126,"count":414,"max":[3.90152764,2.11873341,2.225273],"min":[-2.32017541,-2.284219,-2.3144002],"type":"VEC3","name":"accessorPositions"},{"bufferView":1,"byteOffset":52896,"componentType":5126,"count":414,"type":"VEC3","name":"accessorNormals"},{"bufferView":2,"byteOffset":15976,"componentType":5126,"count":414,"type":"VEC2","name":"accessorUVs"},{"bufferView":0,"byteOffset":8868,"componentType":5123,"count":72,"type":"SCALAR","name":"accessorIndices"},{"bufferView":1,"byteOffset":57864,"componentType":5126,"count":40,"max":[3.95271349,-1.78411055,2.00365233],"min":[3.625287,-1.9917376,1.99212217],"type":"VEC3","name":"accessorPositions"},{"bufferView":1,"byteOffset":58344,"componentType":5126,"count":40,"type":"VEC3","name":"accessorNormals"},{"bufferView":2,"byteOffset":19288,"componentType":5126,"count":40,"type":"VEC2","name":"accessorUVs"},{"bufferView":0,"byteOffset":9012,"componentType":5123,"count":1320,"type":"SCALAR","name":"accessorIndices"},{"bufferView":1,"byteOffset":58824,"componentType":5126,"count":280,"max":[1.61097121,2.48400927,1.19784617],"min":[-2.34883237,1.54519558,-1.67116],"type":"VEC3","name":"accessorPositions"},{"bufferView":1,"byteOffset":62184,"componentType":5126,"count":280,"type":"VEC3","name":"accessorNormals"},{"bufferView":2,"byteOffset":19608,"componentType":5126,"count":280,"type":"VEC2","name":"accessorUVs"}],"bufferViews":[{"buffer":0,"byteLength":11652,"name":"bufferViewScalar"},{"buffer":0,"byteOffset":11652,"byteLength":65544,"byteStride":12,"name":"bufferViewFloatVec3"},{"buffer":0,"byteOffset":77196,"byteLength":21848,"byteStride":8,"name":"bufferViewFloatVec2"}],"buffers":[{"uri":"51.bin","byteLength":99044}],"materials":[{"pbrMetallicRoughness":{"baseColorFactor":[0.5,0.5,0.5,1.0],"metallicFactor":0.0,"roughnessFactor":0.0},"doubleSided":true,"name":"Material #24"},{"pbrMetallicRoughness":{"baseColorTexture":{"index":0},"metallicFactor":0.0,"roughnessFactor":0.0},"doubleSided":true,"name":"Material #228"},{"pbrMetallicRoughness":{"baseColorTexture":{"index":1},"metallicFactor":0.0,"roughnessFactor":0.0},"doubleSided":true,"name":"Material #229"},{"pbrMetallicRoughness":{"baseColorTexture":{"index":2},"metallicFactor":0.26,"roughnessFactor":0.0},"doubleSided":true,"name":"Material #235"},{"pbrMetallicRoughness":{"baseColorTexture":{"index":3},"metallicFactor":0.0,"roughnessFactor":0.0},"doubleSided":true,"name":"Material #237"},{"pbrMetallicRoughness":{"baseColorTexture":{"index":4},"metallicFactor":0.0,"roughnessFactor":0.0},"doubleSided":true,"name":"Material #239"},{"pbrMetallicRoughness":{"baseColorFactor":[0.009316283,0.107913673,0.0132601727,1.0],"metallicFactor":0.0},"normalTexture":{"index":5,"scale":0.3},"doubleSided":true,"name":"dimian"},{"pbrMetallicRoughness":{"baseColorFactor":[0.346970439,0.798561156,0.777546346,1.0],"metallicFactor":0.01,"roughnessFactor":0.0},"doubleSided":true,"name":"diangui"},{"pbrMetallicRoughness":{"baseColorFactor":[0.2086331,0.037990544,0.0147211095,1.0],"metallicFactor":0.0,"roughnessFactor":0.0},"doubleSided":true,"name":"diyaJG1"},{"pbrMetallicRoughness":{"baseColorFactor":[0.768627465,0.768627465,0.768627465,1.0],"metallicFactor":0.66,"roughnessFactor":0.0},"doubleSided":true,"name":"jinshu"},{"pbrMetallicRoughness":{"baseColorTexture":{"index":6},"metallicFactor":0.0,"roughnessFactor":0.0},"doubleSided":true,"name":"Material #2465"},{"pbrMetallicRoughness":{"baseColorTexture":{"index":7},"metallicFactor":0.0,"roughnessFactor":0.0},"doubleSided":true,"name":"Material #273"},{"pbrMetallicRoughness":{"baseColorTexture":{"index":8},"metallicFactor":0.0,"roughnessFactor":0.0},"doubleSided":true,"name":"Material #291"},{"pbrMetallicRoughness":{"baseColorFactor":[0.145,0.416,0.118,1.0],"metallicFactor":0.0,"roughnessFactor":0.0},"doubleSided":true,"name":"Material #2341"}],"textures":[{"sampler":0,"source":0,"name":"lanqi_9.jpg"},{"sampler":0,"source":1,"name":"lvyouqi_10.jpg"},{"sampler":0,"source":2,"name":"suojingji_13.jpg"},{"sampler":0,"source":3,"name":"huangqi_14.jpg"},{"sampler":0,"source":4,"name":"lbyouqi_15.jpg"},{"sampler":0,"source":5,"name":"qiang_23.jpg"},{"sampler":0,"source":6,"name":"hui_8.jpg"},{"sampler":0,"source":7,"name":"huangqi_19.jpg"},{"sampler":0,"source":8,"name":"heiqi_21.jpg"}],"images":[{"uri":"lanqi_9.jpg"},{"uri":"lvyouqi_10.jpg"},{"uri":"suojingji_13.jpg"},{"uri":"huangqi_14.jpg"},{"uri":"lbyouqi_15.jpg"},{"uri":"qiang_23.jpg"},{"uri":"hui_8.jpg"},{"uri":"huangqi_19.jpg"},{"uri":"heiqi_21.jpg"}],"samplers":[{"magFilter":9729,"minFilter":9987}]}