{"asset":{"version":"2.0","generator":"babylon.js glTF exporter for 3dsmax 2021 v20230922.2"},"scene":0,"scenes":[{"nodes":[0]}],"nodes":[{"children":[1,2],"translation":[1.47163081,60.380394,26.7117348],"name":"shenchanxian"},{"mesh":0,"translation":[-58.1368828,-60.380394,-26.9737759],"scale":[1.07058525,1.0,1.095371],"name":"500neituji"},{"mesh":1,"translation":[-58.1368828,-60.380394,-27.16999],"scale":[1.07058525,1.0,1.095371],"name":"300neituji"}],"meshes":[{"primitives":[{"attributes":{"POSITION":1,"NORMAL":2,"TEXCOORD_0":3},"indices":0,"material":0}],"name":"500neituji"},{"primitives":[{"attributes":{"POSITION":5,"NORMAL":6,"TEXCOORD_0":7},"indices":4,"material":0}],"name":"300neituji"}],"accessors":[{"bufferView":0,"componentType":5123,"count":30,"type":"SCALAR","name":"accessorIndices"},{"bufferView":1,"componentType":5126,"count":20,"max":[3.97411132,2.73067522,1.00366449],"min":[-3.97411132,0.0,-2.30817127],"type":"VEC3","name":"accessorPositions"},{"bufferView":1,"byteOffset":240,"componentType":5126,"count":20,"type":"VEC3","name":"accessorNormals"},{"bufferView":2,"componentType":5126,"count":20,"type":"VEC2","name":"accessorUVs"},{"bufferView":0,"byteOffset":60,"componentType":5123,"count":30,"type":"SCALAR","name":"accessorIndices"},{"bufferView":1,"byteOffset":480,"componentType":5126,"count":20,"max":[3.97411132,2.73067522,5.49118376],"min":[-3.97411132,0.0,2.30829334],"type":"VEC3","name":"accessorPositions"},{"bufferView":1,"byteOffset":720,"componentType":5126,"count":20,"type":"VEC3","name":"accessorNormals"},{"bufferView":2,"byteOffset":160,"componentType":5126,"count":20,"type":"VEC2","name":"accessorUVs"}],"bufferViews":[{"buffer":0,"byteLength":120,"name":"bufferViewScalar"},{"buffer":0,"byteOffset":120,"byteLength":960,"byteStride":12,"name":"bufferViewFloatVec3"},{"buffer":0,"byteOffset":1080,"byteLength":320,"byteStride":8,"name":"bufferViewFloatVec2"}],"buffers":[{"uri":"54.bin","byteLength":1400}],"materials":[{"pbrMetallicRoughness":{"baseColorTexture":{"index":0},"metallicFactor":0.0,"roughnessFactor":0.0},"doubleSided":true,"name":"Material #233"}],"textures":[{"sampler":0,"source":0,"name":"baiqi_12.jpg"}],"images":[{"uri":"baiqi_12.jpg"}],"samplers":[{"magFilter":9729,"minFilter":9987}]}