{"asset":{"version":"2.0","generator":"babylon.js glTF exporter for 3dsmax 2021 v20230922.2"},"scene":0,"scenes":[{"nodes":[0]}],"nodes":[{"children":[1],"translation":[1.47163081,60.380394,26.7117348],"name":"shenchanxian"},{"mesh":0,"translation":[-39.4074631,-60.3803978,-44.08334],"scale":[1.2709,1.2709,1.2709],"name":"500suojinji"}],"meshes":[{"primitives":[{"attributes":{"POSITION":1,"NORMAL":2,"TEXCOORD_0":3},"indices":0,"material":0},{"attributes":{"POSITION":5,"NORMAL":6,"TEXCOORD_0":7},"indices":4,"material":1},{"attributes":{"POSITION":9,"NORMAL":10,"TEXCOORD_0":11},"indices":8,"material":2},{"attributes":{"POSITION":13,"NORMAL":14,"TEXCOORD_0":15},"indices":12,"material":3},{"attributes":{"POSITION":17,"NORMAL":18,"TEXCOORD_0":19},"indices":16,"material":4},{"attributes":{"POSITION":21,"NORMAL":22,"TEXCOORD_0":23},"indices":20,"material":5},{"attributes":{"POSITION":25,"NORMAL":26,"TEXCOORD_0":27},"indices":24,"material":6}],"name":"500suojinji"}],"accessors":[{"bufferView":0,"componentType":5123,"count":30,"type":"SCALAR","name":"accessorIndices"},{"bufferView":1,"componentType":5126,"count":20,"max":[9.580823,2.90320253,-0.4029834],"min":[-9.483061,0.406537533,-0.515598834],"type":"VEC3","name":"accessorPositions"},{"bufferView":1,"byteOffset":240,"componentType":5126,"count":20,"type":"VEC3","name":"accessorNormals"},{"bufferView":2,"componentType":5126,"count":20,"type":"VEC2","name":"accessorUVs"},{"bufferView":0,"byteOffset":60,"componentType":5123,"count":480,"type":"SCALAR","name":"accessorIndices"},{"bufferView":1,"byteOffset":480,"componentType":5126,"count":316,"max":[8.907771,1.50000238,3.72062349],"min":[-8.817922,2.36434676E-06,0.5365064],"type":"VEC3","name":"accessorPositions"},{"bufferView":1,"byteOffset":4272,"componentType":5126,"count":316,"type":"VEC3","name":"accessorNormals"},{"bufferView":2,"byteOffset":160,"componentType":5126,"count":316,"type":"VEC2","name":"accessorUVs"},{"bufferView":0,"byteOffset":1020,"componentType":5123,"count":2526,"type":"SCALAR","name":"accessorIndices"},{"bufferView":1,"byteOffset":8064,"componentType":5126,"count":1404,"max":[8.921413,2.90320158,1.34790742],"min":[-8.945776,0.112419568,-0.478461],"type":"VEC3","name":"accessorPositions"},{"bufferView":1,"byteOffset":24912,"componentType":5126,"count":1404,"type":"VEC3","name":"accessorNormals"},{"bufferView":2,"byteOffset":2688,"componentType":5126,"count":1404,"type":"VEC2","name":"accessorUVs"},{"bufferView":0,"byteOffset":6072,"componentType":5123,"count":840,"type":"SCALAR","name":"accessorIndices"},{"bufferView":1,"byteOffset":41760,"componentType":5126,"count":504,"max":[8.890382,1.48469162,0.8830364],"min":[-9.01029,0.7428346,-0.0583853126],"type":"VEC3","name":"accessorPositions"},{"bufferView":1,"byteOffset":47808,"componentType":5126,"count":504,"type":"VEC3","name":"accessorNormals"},{"bufferView":2,"byteOffset":13920,"componentType":5126,"count":504,"type":"VEC2","name":"accessorUVs"},{"bufferView":0,"byteOffset":7752,"componentType":5123,"count":372,"type":"SCALAR","name":"accessorIndices"},{"bufferView":1,"byteOffset":53856,"componentType":5126,"count":88,"max":[10.1267986,2.22264838,4.341129],"min":[8.878042,2.4414062E-06,2.8570137],"type":"VEC3","name":"accessorPositions"},{"bufferView":1,"byteOffset":54912,"componentType":5126,"count":88,"type":"VEC3","name":"accessorNormals"},{"bufferView":2,"byteOffset":17952,"componentType":5126,"count":88,"type":"VEC2","name":"accessorUVs"},{"bufferView":0,"byteOffset":8496,"componentType":5123,"count":84,"type":"SCALAR","name":"accessorIndices"},{"bufferView":1,"byteOffset":55968,"componentType":5126,"count":56,"max":[8.921413,2.90320158,-0.06536072],"min":[-8.945776,0.989404559,-0.0653611],"type":"VEC3","name":"accessorPositions"},{"bufferView":1,"byteOffset":56640,"componentType":5126,"count":56,"type":"VEC3","name":"accessorNormals"},{"bufferView":2,"byteOffset":18656,"componentType":5126,"count":56,"type":"VEC2","name":"accessorUVs"},{"bufferView":0,"byteOffset":8664,"componentType":5123,"count":6,"type":"SCALAR","name":"accessorIndices"},{"bufferView":1,"byteOffset":57312,"componentType":5126,"count":4,"max":[1.31749809,1.50000238,3.72062349],"min":[0.5426849,1.293103,2.94965458],"type":"VEC3","name":"accessorPositions"},{"bufferView":1,"byteOffset":57360,"componentType":5126,"count":4,"type":"VEC3","name":"accessorNormals"},{"bufferView":2,"byteOffset":19104,"componentType":5126,"count":4,"type":"VEC2","name":"accessorUVs"}],"bufferViews":[{"buffer":0,"byteLength":8676,"name":"bufferViewScalar"},{"buffer":0,"byteOffset":8676,"byteLength":57408,"byteStride":12,"name":"bufferViewFloatVec3"},{"buffer":0,"byteOffset":66084,"byteLength":19136,"byteStride":8,"name":"bufferViewFloatVec2"}],"buffers":[{"uri":"56.bin","byteLength":85220}],"materials":[{"pbrMetallicRoughness":{"baseColorTexture":{"index":0},"metallicFactor":0.0,"roughnessFactor":0.0},"doubleSided":true,"name":"Material #2465"},{"pbrMetallicRoughness":{"baseColorTexture":{"index":1},"metallicFactor":0.0,"roughnessFactor":0.0},"doubleSided":true,"name":"Material #228"},{"pbrMetallicRoughness":{"baseColorTexture":{"index":2},"metallicFactor":0.26,"roughnessFactor":0.0},"doubleSided":true,"name":"Material #235"},{"pbrMetallicRoughness":{"baseColorTexture":{"index":3},"metallicFactor":0.0,"roughnessFactor":0.0},"doubleSided":true,"name":"Material #237"},{"pbrMetallicRoughness":{"baseColorTexture":{"index":4},"metallicFactor":0.0,"roughnessFactor":0.0},"doubleSided":true,"name":"Material #239"},{"pbrMetallicRoughness":{"baseColorTexture":{"index":5},"metallicFactor":0.0,"roughnessFactor":0.0},"doubleSided":true,"name":"Material #2521"},{"pbrMetallicRoughness":{"baseColorTexture":{"index":6},"metallicFactor":0.0,"roughnessFactor":0.0},"doubleSided":true,"name":"Material #2523"}],"textures":[{"sampler":0,"source":0,"name":"hui_8.jpg"},{"sampler":0,"source":1,"name":"lanqi_9.jpg"},{"sampler":0,"source":2,"name":"suojingji_13.jpg"},{"sampler":0,"source":3,"name":"huangqi_14.jpg"},{"sampler":0,"source":4,"name":"lbyouqi_15.jpg"},{"sampler":0,"source":5,"name":"suojingji_39.jpg"},{"sampler":0,"source":6,"name":"330suojingji_40.jpg"}],"images":[{"uri":"hui_8.jpg"},{"uri":"lanqi_9.jpg"},{"uri":"suojingji_13.jpg"},{"uri":"huangqi_14.jpg"},{"uri":"lbyouqi_15.jpg"},{"uri":"suojingji_39.jpg"},{"uri":"330suojingji_40.jpg"}],"samplers":[{"magFilter":9729,"minFilter":9987}]}