<svg width="16" height="16" viewBox="0 0 16 16" fill="none" xmlns="http://www.w3.org/2000/svg">
<path fill-rule="evenodd" clip-rule="evenodd" d="M5.17558 2.0673C5.08415 1.99387 5.02046 1.89148 4.995 1.777L4.74 0.627001C4.71793 0.496594 4.74677 0.36269 4.82058 0.252937C4.89438 0.143183 5.00752 0.0659615 5.13662 0.0372156C5.26572 0.00846964 5.40092 0.0303947 5.51433 0.0984638C5.62773 0.166533 5.71066 0.275548 5.746 0.403001L6.002 1.553C6.03151 1.68665 6.00682 1.82656 5.93333 1.94203C5.85985 2.0575 5.74357 2.13913 5.61 2.169C5.57319 2.17693 5.53565 2.18095 5.498 2.181C5.38073 2.18084 5.26701 2.14074 5.17558 2.0673ZM2.267 4.168L1.273 3.535C1.16259 3.45935 1.08589 3.34376 1.0591 3.21262C1.03231 3.08149 1.05752 2.94507 1.12941 2.83218C1.2013 2.71928 1.31425 2.63874 1.44441 2.60754C1.57456 2.57635 1.71175 2.59695 1.827 2.665L2.822 3.298C2.93594 3.37224 3.01596 3.48846 3.04467 3.62138C3.07339 3.7543 3.04846 3.89319 2.97533 4.00784C2.90219 4.12249 2.78675 4.20363 2.65411 4.23362C2.52147 4.26361 2.38235 4.24003 2.267 4.168ZM2.028 7.787L0.878001 8.043C0.841194 8.05093 0.803653 8.05495 0.766001 8.055C0.638752 8.05509 0.515957 8.00816 0.421205 7.92322C0.326454 7.83828 0.26643 7.72133 0.252663 7.59482C0.238897 7.46832 0.27236 7.34119 0.346622 7.23786C0.420885 7.13453 0.530711 7.06228 0.655001 7.035L1.805 6.779C1.87119 6.76436 1.93961 6.7629 2.00636 6.7747C2.07311 6.7865 2.13689 6.81133 2.19404 6.84778C2.25119 6.88422 2.30061 6.93157 2.33947 6.98712C2.37832 7.04266 2.40586 7.10531 2.4205 7.1715C2.43514 7.23769 2.43661 7.30611 2.42481 7.37286C2.413 7.43961 2.38817 7.50339 2.35173 7.56054C2.31528 7.61769 2.26793 7.66711 2.21239 7.70597C2.15684 7.74482 2.09419 7.77236 2.028 7.787ZM11.228 5.751C11.1912 5.75893 11.1537 5.76295 11.116 5.763C10.9887 5.76334 10.8657 5.71658 10.7708 5.63172C10.6758 5.54687 10.6156 5.4299 10.6017 5.30332C10.5878 5.17675 10.6212 5.0495 10.6955 4.94606C10.7697 4.84263 10.8796 4.7703 11.004 4.743L12.154 4.487C12.2202 4.47229 12.2886 4.47077 12.3554 4.4825C12.4222 4.49424 12.486 4.51902 12.5432 4.55542C12.6004 4.59182 12.6499 4.63913 12.6888 4.69465C12.7277 4.75017 12.7553 4.81281 12.77 4.879C12.7847 4.94519 12.7862 5.01362 12.7745 5.0804C12.7628 5.14718 12.738 5.21099 12.7016 5.26819C12.6652 5.32539 12.6179 5.37486 12.5623 5.41378C12.5068 5.45269 12.4442 5.48029 12.378 5.495L11.228 5.751ZM9.1607 2.79634C9.02719 2.82597 8.88739 2.80139 8.772 2.728C8.65669 2.65448 8.57528 2.5382 8.54566 2.4047C8.51603 2.27119 8.54061 2.13139 8.614 2.016L9.247 1.022C9.32265 0.911589 9.43825 0.834893 9.56938 0.808102C9.70051 0.781311 9.83693 0.806522 9.94982 0.878412C10.0627 0.950303 10.1433 1.06325 10.1745 1.1934C10.2057 1.32356 10.185 1.46075 10.117 1.576L9.484 2.57C9.41048 2.68531 9.2942 2.76672 9.1607 2.79634ZM3.4 7.902C3.25184 7.62795 3.14086 7.33537 3.07 7.032C2.86631 6.11674 3.03356 5.15805 3.53672 4.36683C4.03988 3.57562 4.83674 3.01669 5.752 2.813C6.66726 2.60931 7.62595 2.77756 8.41717 3.28072C9.20838 3.78388 9.76731 4.58074 9.971 5.496C10.0039 5.66494 10.0243 5.83607 10.032 6.008C9.68699 5.88909 9.33085 5.80534 8.969 5.758C8.96749 5.75194 8.96699 5.74563 8.96649 5.73919C8.96599 5.73287 8.96549 5.72644 8.964 5.72C8.89302 5.3988 8.75935 5.09477 8.57065 4.82533C8.38195 4.55589 8.14193 4.32634 7.86435 4.14983C7.58677 3.97332 7.27709 3.85333 6.95305 3.79673C6.629 3.74013 6.29698 3.74804 5.976 3.82C5.32784 3.96432 4.76354 4.36019 4.40723 4.92054C4.05092 5.48089 3.93178 6.15982 4.076 6.808C4.12631 7.02012 4.20466 7.22459 4.309 7.416C4.03495 7.62714 3.72778 7.79137 3.4 7.902ZM11.8516 14.5513C10.9951 15.4421 9.76855 16 8.40623 16C7.06667 16 5.85835 15.4606 5.0041 14.5956C4.92146 14.512 4.79476 14.4834 4.68049 14.519C4.40712 14.604 4.1154 14.65 3.8125 14.65C2.2592 14.65 1 13.4412 1 11.95C1 10.4588 2.2592 9.25 3.8125 9.25C3.91696 9.25 4.02009 9.25547 4.1216 9.26612C4.24078 9.27863 4.35858 9.22608 4.42185 9.12832C5.24882 7.85065 6.72405 7 8.40623 7C10.0977 7 11.5798 7.86002 12.4042 9.1494C12.4707 9.25345 12.5983 9.30651 12.7238 9.28653C12.8746 9.2625 13.0295 9.25 13.1875 9.25C14.7408 9.25 16 10.4588 16 11.95C16 13.4412 14.7408 14.65 13.1875 14.65C12.8375 14.65 12.5024 14.5886 12.1933 14.4765C12.0742 14.4332 11.938 14.4614 11.8516 14.5513ZM11.5467 13.4682C11.6569 13.3064 11.9059 13.2779 12.0672 13.3935C12.3798 13.6174 12.7675 13.75 13.1875 13.75C14.223 13.75 15.0625 12.9441 15.0625 11.95C15.0625 10.9559 14.223 10.15 13.1875 10.15C12.899 10.15 12.6257 10.2126 12.3815 10.3243C12.1995 10.4076 11.9606 10.3331 11.8851 10.1536C11.3298 8.83236 9.98142 7.9 8.40623 7.9C6.85223 7.9 5.51901 8.80744 4.95016 10.1005C4.87784 10.2649 4.66778 10.3378 4.49464 10.2728C4.28324 10.1935 4.05316 10.15 3.8125 10.15C2.77697 10.15 1.9375 10.9559 1.9375 11.95C1.9375 12.9441 2.77697 13.75 3.8125 13.75C4.18935 13.75 4.54023 13.6433 4.83414 13.4596C4.98975 13.3623 5.21044 13.3929 5.31577 13.5397C5.99201 14.4822 7.12396 15.1 8.40623 15.1C9.72066 15.1 10.8771 14.4508 11.5467 13.4682Z" fill="#FCC307"/>
<path d="M8.40623 15.9851C9.76855 15.9851 10.9951 15.4272 11.8516 14.5364C11.938 14.4465 12.0742 14.4184 12.1933 14.4616C12.5024 14.5737 12.8375 14.6351 13.1875 14.6351C14.7408 14.6351 16 13.4263 16 11.9351C16 10.444 14.7408 9.23512 13.1875 9.23512C13.0295 9.23512 12.8746 9.24763 12.7238 9.27165C12.5983 9.29164 12.4707 9.23858 12.4042 9.13453C11.5798 7.84514 10.0977 6.98512 8.40623 6.98512C6.72405 6.98512 5.24882 7.83578 4.42185 9.11344C4.35858 9.2112 4.24078 9.26375 4.1216 9.25124C4.02009 9.24059 3.91696 9.23512 3.8125 9.23512C2.2592 9.23512 1 10.444 1 11.9351C1 13.4263 2.2592 14.6351 3.8125 14.6351C4.1154 14.6351 4.40712 14.5892 4.68049 14.5041C4.79476 14.4685 4.92146 14.4971 5.0041 14.5808C5.85835 15.4457 7.06667 15.9851 8.40623 15.9851ZM12.0672 13.3786C11.9059 13.263 11.6569 13.2915 11.5467 13.4533C10.8771 14.4359 9.72066 15.0851 8.40623 15.0851C7.12396 15.0851 5.99201 14.4673 5.31577 13.5248C5.21044 13.378 4.98975 13.3475 4.83414 13.4447C4.54023 13.6284 4.18935 13.7351 3.8125 13.7351C2.77697 13.7351 1.9375 12.9292 1.9375 11.9351C1.9375 10.941 2.77697 10.1351 3.8125 10.1351C4.05316 10.1351 4.28324 10.1787 4.49464 10.258C4.66778 10.3229 4.87784 10.25 4.95016 10.0856C5.51901 8.79256 6.85223 7.88512 8.40623 7.88512C9.98142 7.88512 11.3298 8.81748 11.8851 10.1387C11.9606 10.3182 12.1995 10.3927 12.3815 10.3094C12.6257 10.1977 12.899 10.1351 13.1875 10.1351C14.223 10.1351 15.0625 10.941 15.0625 11.9351C15.0625 12.9292 14.223 13.7351 13.1875 13.7351C12.7675 13.7351 12.3798 13.6026 12.0672 13.3786Z" fill="#5698C3"/>
<path d="M4.995 1.76212C5.02046 1.8766 5.08415 1.97899 5.17558 2.05242C5.26701 2.12586 5.38073 2.16596 5.498 2.16612C5.53565 2.16607 5.57319 2.16205 5.61 2.15412C5.74357 2.12425 5.85985 2.04262 5.93333 1.92715C6.00682 1.81167 6.03151 1.67177 6.002 1.53812L5.746 0.388119C5.71066 0.260667 5.62773 0.151652 5.51433 0.0835827C5.40092 0.0155136 5.26572 -0.00641149 5.13662 0.0223344C5.00752 0.0510804 4.89438 0.128302 4.82058 0.238056C4.74677 0.347809 4.71793 0.481713 4.74 0.612119L4.995 1.76212ZM1.273 3.52012L2.267 4.15312C2.38235 4.22515 2.52147 4.24873 2.65411 4.21874C2.78675 4.18875 2.90219 4.1076 2.97533 3.99296C3.04846 3.87831 3.07339 3.73942 3.04467 3.6065C3.01596 3.47358 2.93594 3.35736 2.822 3.28312L1.827 2.65012C1.71175 2.58207 1.57456 2.56147 1.44441 2.59266C1.31425 2.62385 1.2013 2.7044 1.12941 2.8173C1.05752 2.93019 1.03231 3.06661 1.0591 3.19774C1.08589 3.32887 1.16259 3.44447 1.273 3.52012ZM0.878001 8.02812L2.028 7.77212C2.09419 7.75748 2.15684 7.72994 2.21239 7.69109C2.26793 7.65223 2.31528 7.60281 2.35173 7.54566C2.38817 7.4885 2.413 7.42473 2.42481 7.35798C2.43661 7.29123 2.43514 7.22281 2.4205 7.15662C2.40586 7.09043 2.37832 7.02778 2.33947 6.97223C2.30061 6.91669 2.25119 6.86934 2.19404 6.8329C2.13689 6.79645 2.07311 6.77162 2.00636 6.75981C1.93961 6.74801 1.87119 6.74948 1.805 6.76412L0.655001 7.02012C0.530711 7.0474 0.420885 7.11965 0.346622 7.22298C0.27236 7.32631 0.238897 7.45344 0.252664 7.57994C0.26643 7.70645 0.326454 7.8234 0.421206 7.90834C0.515957 7.99328 0.638752 8.04021 0.766001 8.04012C0.803653 8.04007 0.841194 8.03605 0.878001 8.02812ZM11.116 5.74812C11.1537 5.74807 11.1912 5.74405 11.228 5.73612L12.378 5.48012C12.4442 5.46541 12.5068 5.43781 12.5623 5.39889C12.6179 5.35998 12.6652 5.31051 12.7016 5.25331C12.738 5.1961 12.7628 5.13229 12.7745 5.06552C12.7862 4.99874 12.7847 4.93031 12.77 4.86412C12.7553 4.79793 12.7277 4.73529 12.6888 4.67977C12.6499 4.62425 12.6004 4.57694 12.5432 4.54054C12.486 4.50414 12.4222 4.47936 12.3554 4.46762C12.2886 4.45588 12.2202 4.45741 12.154 4.47212L11.004 4.72812C10.8796 4.75542 10.7697 4.82774 10.6955 4.93118C10.6212 5.03462 10.5878 5.16187 10.6017 5.28844C10.6156 5.41502 10.6758 5.53198 10.7708 5.61684C10.8657 5.7017 10.9887 5.74846 11.116 5.74812ZM8.772 2.71312C8.88739 2.78651 9.02719 2.81109 9.1607 2.78146C9.2942 2.75184 9.41048 2.67043 9.484 2.55512L10.117 1.56112C10.185 1.44587 10.2057 1.30868 10.1745 1.17852C10.1433 1.04837 10.0627 0.935421 9.94982 0.863531C9.83693 0.791641 9.70051 0.76643 9.56938 0.793221C9.43825 0.820012 9.32265 0.896708 9.247 1.00712L8.614 2.00112C8.54061 2.11651 8.51603 2.25631 8.54566 2.38982C8.57528 2.52332 8.65669 2.6396 8.772 2.71312ZM3.07 7.01712C3.14086 7.32049 3.25184 7.61307 3.4 7.88712C3.72778 7.77648 4.03495 7.61226 4.309 7.40112C4.20466 7.20971 4.12631 7.00524 4.076 6.79312C3.93178 6.14493 4.05092 5.466 4.40723 4.90566C4.76354 4.34531 5.32784 3.94944 5.976 3.80512C6.29698 3.73316 6.629 3.72525 6.95305 3.78185C7.27709 3.83845 7.58677 3.95844 7.86435 4.13495C8.14193 4.31146 8.38195 4.54101 8.57065 4.81045C8.75935 5.07989 8.89302 5.38392 8.964 5.70512C8.967 5.71812 8.966 5.73112 8.969 5.74312C9.33085 5.79045 9.68699 5.87421 10.032 5.99312C10.0243 5.82119 10.0039 5.65006 9.971 5.48112C9.76731 4.56586 9.20838 3.769 8.41717 3.26584C7.62595 2.76268 6.66726 2.59443 5.752 2.79812C4.83674 3.00181 4.03988 3.56074 3.53672 4.35195C3.03356 5.14317 2.86631 6.10186 3.07 7.01712Z" fill="#FCC307"/>
</svg>
