{"asset":{"version":"2.0","generator":"babylon.js glTF exporter for 3dsmax 2021 v20230922.2"},"scene":0,"scenes":[{"nodes":[0]}],"nodes":[{"mesh":0,"translation":[-3.18443346,4.379664,0.166612551],"name":"Box437"}],"meshes":[{"primitives":[{"attributes":{"POSITION":1,"NORMAL":2,"TEXCOORD_0":3},"indices":0,"material":0}],"name":"Box437"}],"accessors":[{"bufferView":0,"componentType":5123,"count":144,"type":"SCALAR","name":"accessorIndices"},{"bufferView":1,"componentType":5126,"count":76,"max":[71.47508,4.51941,21.1397877],"min":[-63.27729,-4.44953775,-32.1949234],"type":"VEC3","name":"accessorPositions"},{"bufferView":1,"byteOffset":912,"componentType":5126,"count":76,"type":"VEC3","name":"accessorNormals"},{"bufferView":2,"componentType":5126,"count":76,"type":"VEC2","name":"accessorUVs"}],"bufferViews":[{"buffer":0,"byteLength":288,"name":"bufferViewScalar"},{"buffer":0,"byteOffset":288,"byteLength":1824,"byteStride":12,"name":"bufferViewFloatVec3"},{"buffer":0,"byteOffset":2112,"byteLength":608,"byteStride":8,"name":"bufferViewFloatVec2"}],"buffers":[{"uri":"weiqiang.bin","byteLength":2720}],"materials":[{"pbrMetallicRoughness":{"baseColorFactor":[0.633093536,0.633093536,0.5285734,1.0],"metallicFactor":0.0},"doubleSided":true,"name":"Material #199167"}]}