{"asset":{"version":"2.0","generator":"babylon.js glTF exporter for 3dsmax 2021 v20230922.2"},"scene":0,"scenes":[{"nodes":[0]}],"nodes":[{"children":[1],"translation":[1.47163081,60.380394,26.7117348],"name":"shenchanxian"},{"children":[2],"translation":[30.4893742,-59.21984,-45.6817627],"scale":[1.125775,1.125775,1.125775],"name":"500lashenji"},{"mesh":0,"translation":[-6.2113843,0.0108578485,-4.37954235],"scale":[0.786212862,0.786212862,0.786212862],"name":"500lashenji005"}],"meshes":[{"primitives":[{"attributes":{"POSITION":1,"NORMAL":2,"TEXCOORD_0":3},"indices":0,"material":0},{"attributes":{"POSITION":5,"NORMAL":6,"TEXCOORD_0":7},"indices":4,"material":1},{"attributes":{"POSITION":9,"NORMAL":10,"TEXCOORD_0":11},"indices":8,"material":2},{"attributes":{"POSITION":13,"NORMAL":14,"TEXCOORD_0":15},"indices":12,"material":3},{"attributes":{"POSITION":17,"NORMAL":18,"TEXCOORD_0":19},"indices":16,"material":4},{"attributes":{"POSITION":21,"NORMAL":22,"TEXCOORD_0":23},"indices":20,"material":5},{"attributes":{"POSITION":25,"NORMAL":26,"TEXCOORD_0":27},"indices":24,"material":6},{"attributes":{"POSITION":29,"NORMAL":30,"TEXCOORD_0":31},"indices":28,"material":7}],"name":"500lashenji005"}],"accessors":[{"bufferView":0,"componentType":5123,"count":732,"type":"SCALAR","name":"accessorIndices"},{"bufferView":1,"componentType":5126,"count":344,"max":[2.58210349,1.55841446,3.94585848],"min":[-3.82002616,-0.783708155,-2.072746],"type":"VEC3","name":"accessorPositions"},{"bufferView":1,"byteOffset":4128,"componentType":5126,"count":344,"type":"VEC3","name":"accessorNormals"},{"bufferView":2,"componentType":5126,"count":344,"type":"VEC2","name":"accessorUVs"},{"bufferView":0,"byteOffset":1464,"componentType":5123,"count":702,"type":"SCALAR","name":"accessorIndices"},{"bufferView":1,"byteOffset":8256,"componentType":5126,"count":308,"max":[1.95459151,0.2747471,2.05737329],"min":[1.0145005,-0.385381967,-3.94586086],"type":"VEC3","name":"accessorPositions"},{"bufferView":1,"byteOffset":11952,"componentType":5126,"count":308,"type":"VEC3","name":"accessorNormals"},{"bufferView":2,"byteOffset":2752,"componentType":5126,"count":308,"type":"VEC2","name":"accessorUVs"},{"bufferView":0,"byteOffset":2868,"componentType":5123,"count":816,"type":"SCALAR","name":"accessorIndices"},{"bufferView":1,"byteOffset":15648,"componentType":5126,"count":943,"max":[2.771407,1.73967147,3.89711213],"min":[-3.82002616,-1.73967111,-3.94586086],"type":"VEC3","name":"accessorPositions"},{"bufferView":1,"byteOffset":26964,"componentType":5126,"count":943,"type":"VEC3","name":"accessorNormals"},{"bufferView":2,"byteOffset":5216,"componentType":5126,"count":943,"type":"VEC2","name":"accessorUVs"},{"bufferView":0,"byteOffset":4500,"componentType":5123,"count":150,"type":"SCALAR","name":"accessorIndices"},{"bufferView":1,"byteOffset":38280,"componentType":5126,"count":80,"max":[3.3250885,-1.517381,1.78814292],"min":[2.753268,-1.767292,0.421950668],"type":"VEC3","name":"accessorPositions"},{"bufferView":1,"byteOffset":39240,"componentType":5126,"count":80,"type":"VEC3","name":"accessorNormals"},{"bufferView":2,"byteOffset":12760,"componentType":5126,"count":80,"type":"VEC2","name":"accessorUVs"},{"bufferView":0,"byteOffset":4800,"componentType":5123,"count":384,"type":"SCALAR","name":"accessorIndices"},{"bufferView":1,"byteOffset":40200,"componentType":5126,"count":160,"max":[2.7166028,0.0196389388,1.47126794],"min":[2.38060236,-0.154121131,0.7662253],"type":"VEC3","name":"accessorPositions"},{"bufferView":1,"byteOffset":42120,"componentType":5126,"count":160,"type":"VEC3","name":"accessorNormals"},{"bufferView":2,"byteOffset":13400,"componentType":5126,"count":160,"type":"VEC2","name":"accessorUVs"},{"bufferView":0,"byteOffset":5568,"componentType":5123,"count":6,"type":"SCALAR","name":"accessorIndices"},{"bufferView":1,"byteOffset":44040,"componentType":5126,"count":4,"max":[3.30695367,0.805644453,1.77069056],"min":[3.30695176,-1.51220059,0.439394534],"type":"VEC3","name":"accessorPositions"},{"bufferView":1,"byteOffset":44088,"componentType":5126,"count":4,"type":"VEC3","name":"accessorNormals"},{"bufferView":2,"byteOffset":14680,"componentType":5126,"count":4,"type":"VEC2","name":"accessorUVs"},{"bufferView":0,"byteOffset":5580,"componentType":5123,"count":60,"type":"SCALAR","name":"accessorIndices"},{"bufferView":1,"byteOffset":44136,"componentType":5126,"count":36,"max":[3.30695367,0.805644453,1.77069116],"min":[2.28717828,-1.51220059,0.439394534],"type":"VEC3","name":"accessorPositions"},{"bufferView":1,"byteOffset":44568,"componentType":5126,"count":36,"type":"VEC3","name":"accessorNormals"},{"bufferView":2,"byteOffset":14712,"componentType":5126,"count":36,"type":"VEC2","name":"accessorUVs"},{"bufferView":0,"byteOffset":5700,"componentType":5123,"count":6,"type":"SCALAR","name":"accessorIndices"},{"bufferView":1,"byteOffset":45000,"componentType":5126,"count":4,"max":[2.771408,0.805644453,1.77069116],"min":[2.771407,0.00605907431,0.439394534],"type":"VEC3","name":"accessorPositions"},{"bufferView":1,"byteOffset":45048,"componentType":5126,"count":4,"type":"VEC3","name":"accessorNormals"},{"bufferView":2,"byteOffset":15000,"componentType":5126,"count":4,"type":"VEC2","name":"accessorUVs"}],"bufferViews":[{"buffer":0,"byteLength":5712,"name":"bufferViewScalar"},{"buffer":0,"byteOffset":5712,"byteLength":45096,"byteStride":12,"name":"bufferViewFloatVec3"},{"buffer":0,"byteOffset":50808,"byteLength":15032,"byteStride":8,"name":"bufferViewFloatVec2"}],"buffers":[{"uri":"69.bin","byteLength":65840}],"materials":[{"pbrMetallicRoughness":{"baseColorFactor":[0.009316283,0.107913673,0.0132601727,1.0],"metallicFactor":0.0},"normalTexture":{"index":0,"scale":0.3},"doubleSided":true,"name":"dimian"},{"pbrMetallicRoughness":{"baseColorTexture":{"index":1},"metallicFactor":0.0,"roughnessFactor":0.0},"doubleSided":true,"name":"Material #228"},{"pbrMetallicRoughness":{"baseColorTexture":{"index":2},"metallicFactor":0.26,"roughnessFactor":0.0},"doubleSided":true,"name":"Material #235"},{"pbrMetallicRoughness":{"baseColorTexture":{"index":3},"metallicFactor":0.0,"roughnessFactor":0.0},"doubleSided":true,"name":"Material #239"},{"pbrMetallicRoughness":{"baseColorFactor":[0.5,0.5,0.5,1.0],"metallicFactor":0.0,"roughnessFactor":0.0},"doubleSided":true,"name":"Material #634"},{"pbrMetallicRoughness":{"baseColorTexture":{"index":4},"metallicFactor":0.0,"roughnessFactor":0.0},"doubleSided":true,"name":"Material #2482"},{"pbrMetallicRoughness":{"baseColorFactor":[0.0392156877,0.0431372561,0.345323741,1.0],"metallicFactor":0.0,"roughnessFactor":0.0},"doubleSided":true,"name":"Material #2483"},{"pbrMetallicRoughness":{"baseColorTexture":{"index":5},"metallicFactor":0.0,"roughnessFactor":0.0},"doubleSided":true,"name":"Material #2487"}],"textures":[{"sampler":0,"source":0,"name":"qiang_23.jpg"},{"sampler":0,"source":1,"name":"lanqi_9.jpg"},{"sampler":0,"source":2,"name":"suojingji_13.jpg"},{"sampler":0,"source":3,"name":"lbyouqi_15.jpg"},{"sampler":0,"source":4,"name":"550lashenji_32.jpg"},{"sampler":0,"source":5,"name":"lashenji_35.jpg"}],"images":[{"uri":"qiang_23.jpg"},{"uri":"lanqi_9.jpg"},{"uri":"suojingji_13.jpg"},{"uri":"lbyouqi_15.jpg"},{"uri":"550lashenji_32.jpg"},{"uri":"lashenji_35.jpg"}],"samplers":[{"magFilter":9729,"minFilter":9987}]}