{"asset":{"version":"2.0","generator":"babylon.js glTF exporter for 3dsmax 2021 v20230922.2"},"scene":0,"scenes":[{"nodes":[0]}],"nodes":[{"children":[1],"translation":[1.47163081,60.380394,26.7117348],"name":"shenchanxian"},{"mesh":0,"translation":[58.66392,-58.69654,-54.2337875],"rotation":[0.0,8.742278E-08,0.0,1.0],"scale":[1.18318892,1.45967889,1.45967889],"name":"500kaijuanji"}],"meshes":[{"primitives":[{"attributes":{"POSITION":1,"NORMAL":2,"TEXCOORD_0":3},"indices":0,"material":0},{"attributes":{"POSITION":5,"NORMAL":6,"TEXCOORD_0":7},"indices":4,"material":1},{"attributes":{"POSITION":9,"NORMAL":10,"TEXCOORD_0":11},"indices":8,"material":2},{"attributes":{"POSITION":13,"NORMAL":14,"TEXCOORD_0":15},"indices":12,"material":3}],"name":"500kaijuanji"}],"accessors":[{"bufferView":0,"componentType":5123,"count":66,"type":"SCALAR","name":"accessorIndices"},{"bufferView":1,"componentType":5126,"count":26,"max":[1.90781891,1.62839019,0.206827909],"min":[0.943519354,1.21473527,-0.2068269],"type":"VEC3","name":"accessorPositions"},{"bufferView":1,"byteOffset":312,"componentType":5126,"count":26,"type":"VEC3","name":"accessorNormals"},{"bufferView":2,"componentType":5126,"count":26,"type":"VEC2","name":"accessorUVs"},{"bufferView":0,"byteOffset":132,"componentType":5123,"count":114,"type":"SCALAR","name":"accessorIndices"},{"bufferView":1,"byteOffset":624,"componentType":5126,"count":76,"max":[1.63404167,1.6567868,0.7502621],"min":[-0.676365435,-1.13623536,-0.805172861],"type":"VEC3","name":"accessorPositions"},{"bufferView":1,"byteOffset":1536,"componentType":5126,"count":76,"type":"VEC3","name":"accessorNormals"},{"bufferView":2,"byteOffset":208,"componentType":5126,"count":76,"type":"VEC2","name":"accessorUVs"},{"bufferView":0,"byteOffset":360,"componentType":5123,"count":234,"type":"SCALAR","name":"accessorIndices"},{"bufferView":1,"byteOffset":2448,"componentType":5126,"count":112,"max":[-0.672552943,1.20613158,5.804736],"min":[-3.189835,0.357840121,-0.425975949],"type":"VEC3","name":"accessorPositions"},{"bufferView":1,"byteOffset":3792,"componentType":5126,"count":112,"type":"VEC3","name":"accessorNormals"},{"bufferView":2,"byteOffset":816,"componentType":5126,"count":112,"type":"VEC2","name":"accessorUVs"},{"bufferView":0,"byteOffset":828,"componentType":5123,"count":36,"type":"SCALAR","name":"accessorIndices"},{"bufferView":1,"byteOffset":5136,"componentType":5126,"count":24,"max":[0.0744994357,1.09187472,0.3738122],"min":[-0.6763653,0.391875,-0.373812],"type":"VEC3","name":"accessorPositions"},{"bufferView":1,"byteOffset":5424,"componentType":5126,"count":24,"type":"VEC3","name":"accessorNormals"},{"bufferView":2,"byteOffset":1712,"componentType":5126,"count":24,"type":"VEC2","name":"accessorUVs"}],"bufferViews":[{"buffer":0,"byteLength":900,"name":"bufferViewScalar"},{"buffer":0,"byteOffset":900,"byteLength":5712,"byteStride":12,"name":"bufferViewFloatVec3"},{"buffer":0,"byteOffset":6612,"byteLength":1904,"byteStride":8,"name":"bufferViewFloatVec2"}],"buffers":[{"uri":"9.bin","byteLength":8516}],"materials":[{"pbrMetallicRoughness":{"baseColorTexture":{"index":0},"metallicFactor":0.0,"roughnessFactor":0.0},"doubleSided":true,"name":"Material #228"},{"pbrMetallicRoughness":{"baseColorTexture":{"index":1},"metallicFactor":0.0,"roughnessFactor":0.0},"doubleSided":true,"name":"Material #229"},{"pbrMetallicRoughness":{"baseColorTexture":{"index":2},"metallicFactor":0.26,"roughnessFactor":0.0},"doubleSided":true,"name":"Material #235"},{"pbrMetallicRoughness":{"baseColorTexture":{"index":3},"metallicFactor":0.0,"roughnessFactor":0.0},"doubleSided":true,"name":"Material #237"}],"textures":[{"sampler":0,"source":0,"name":"lanqi_9.jpg"},{"sampler":0,"source":1,"name":"lvyouqi_10.jpg"},{"sampler":0,"source":2,"name":"suojingji_13.jpg"},{"sampler":0,"source":3,"name":"huangqi_14.jpg"}],"images":[{"uri":"lanqi_9.jpg"},{"uri":"lvyouqi_10.jpg"},{"uri":"suojingji_13.jpg"},{"uri":"huangqi_14.jpg"}],"samplers":[{"magFilter":9729,"minFilter":9987}]}